<?xml version="1.0" encoding="utf-8"?>
<!-- Generator: Adobe Illustrator 26.0.1, SVG Export Plug-In . SVG Version: 6.00 Build 0)  -->
<svg version="1.1" id="Layer_1" xmlns="http://www.w3.org/2000/svg" xmlns:xlink="http://www.w3.org/1999/xlink" x="0px" y="0px"
	 viewBox="0 0 471 566" style="enable-background:new 0 0 471 566;" xml:space="preserve">
<style type="text/css">
	.st0{fill:#DE0000;}
	.st1{fill:#D9D9D9;}
</style>
<g>
	<g>
		<g>
			<path class="st0" d="M155.5,54h-17.3l-22.5,50h12.2l4.8-10.6h28.5l4.8,10.6h12.2L155.5,54z M136.7,84.4l9.7-21.6h0.9l9.7,21.6
				H136.7z"/>
		</g>
		<g>
			<path class="st0" d="M312.5,411.7h-17.3l-22.5,50h12.2l4.8-10.6h28.5l4.8,10.6h12.2L312.5,411.7z M293.7,442l9.7-21.6h0.9
				l9.7,21.6H293.7z"/>
		</g>
		<g>
			<polygon class="st0" points="266.6,469.8 266.6,519.8 255.4,519.8 255.4,499.4 220.1,499.4 220.1,519.8 208.9,519.8 208.9,469.8 
				220.1,469.8 220.1,490.3 255.4,490.3 255.4,469.8 			"/>
		</g>
		<g>
			<path class="st0" d="M201.1,446.9c0,5-1.5,8.7-4.3,11.3c-2.9,2.6-6.9,3.8-12,3.8h-41.4V453l40.2,0.1c2.1,0,3.6-0.5,4.7-1.4
				c1.1-1,1.7-2.5,1.7-4.7c0-2.1-0.6-3.7-1.7-4.6c-1.1-1-2.6-1.5-4.7-1.5h-25.1c-5.2,0-9.2-1.2-12.1-3.7c-2.8-2.5-4.3-6.2-4.3-11.1
				c0-4.9,1.4-8.5,4.3-11c2.9-2.5,6.9-3.8,12.1-3.8h39.3v9.1l-38.2-0.1c-2,0-3.6,0.5-4.7,1.4c-1.1,0.9-1.7,2.3-1.7,4.3
				c0,2,0.6,3.5,1.7,4.4c1.1,0.9,2.7,1.3,4.7,1.3h25.1c5.2,0,9.2,1.3,12,3.8C199.7,438.2,201.1,441.9,201.1,446.9z"/>
		</g>
		<g>
			<path class="st0" d="M366.5,351.5h-17.3l-22.5,50.1h12.2l4.8-10.6h28.5l4.8,10.6h12.2L366.5,351.5z M347.7,381.9l9.7-21.6h0.9
				l9.7,21.6H347.7z"/>
		</g>
		<g>
			<rect x="116.9" y="351.5" class="st0" width="11.2" height="50.1"/>
		</g>
		<g>
			<path class="st0" d="M433.3,322.9c-1-1.9-2.5-3.4-4.5-4.5c3.1-2.2,4.6-5.5,4.6-10.2s-1.3-8.1-4.1-10.4c-2.7-2.3-6.8-3.5-12.3-3.5
				l-42.1,0.1v49.9l43.5-0.1c5.5,0,9.7-1.2,12.3-3.6c2.7-2.5,4.1-6.1,4.1-10.8C434.8,327.1,434.3,324.8,433.3,322.9z M386.1,303.4
				h29.6c4.2,0,6.4,1.8,6.4,5.5c0,3.8-2.1,5.7-6.4,5.7h-29.6V303.4z M417.1,335.5h-31v-11.9h31c4.2,0,6.4,2,6.4,5.9
				C423.5,333.5,421.4,335.5,417.1,335.5z"/>
		</g>
		<g>
			<polygon class="st0" points="101.3,294.4 101.3,344.5 90.2,344.5 90.2,308.4 74.3,319.1 74.3,344.5 63.1,344.5 63.1,319.1 
				47.1,308.4 47.1,344.5 35.9,344.5 35.9,294.4 45.3,294.4 68.5,310.7 68.8,310.7 92,294.4 			"/>
		</g>
		<g>
			<path class="st0" d="M343.1,80.5c2.1-2.6,3.2-6.1,3.2-10.6c0-5.3-1.5-9.3-4.3-11.9c-2.8-2.6-6.9-3.9-12-3.9h-41.9v50h11.2V85.7
				h23.1l10.7,18.4h12.7l-11.6-18.8C338,84.7,341,83,343.1,80.5z M328.5,76.5l-29.4-0.1V63.1h29.4c2,0,3.6,0.5,4.7,1.5
				c1.1,1,1.7,2.7,1.7,5.2c0,2.4-0.6,4.2-1.7,5.2C332.1,76,330.5,76.5,328.5,76.5z"/>
		</g>
		<g>
			<polygon points="325.3,341 298.9,380 298.9,380 325.3,341 			"/>
		</g>
		<g>
			<polygon points="298.7,200.7 264.4,251.2 298.9,302 325.3,341 298.9,380 238.5,469 212.1,430 272.5,341 238,290.2 177.5,379.4 
				151,340.5 151.2,340.3 91,251.5 117.4,212.6 177.6,301.3 211.6,251.2 151.4,162.5 151.5,162.3 151.5,162.3 238.5,34 264.9,73 
				204.2,162.5 238,212.3 298.5,123 298.9,123.5 299,123.3 386,251.5 359.6,290.5 			"/>
		</g>
		<g>
			<polygon points="325.5,340.8 325.3,341 298.9,302 299,301.8 			"/>
		</g>
		<g>
			<path d="M470.2,293.3c-20.1-35.7-58.5-113.6-59.7-153.1c-1.2-39.8,11.9-105.7,18.9-135.1l1.3-5.5l-4.9,2.7
				c-18.7,10.1-62.2,29.5-93.4,30.3c-0.6,0-1.2,0-1.8,0c-30.5,0-73.3-19-93-29.7c0,0,0,0,0-0.1c-0.7-1.2-2.2-1.6-3.4-1
				c-19.5,10.8-64.6,31-95.7,30.2c-31.2-0.8-74.7-20.1-93.4-30.3l-4.9-2.7l1.3,5.5c7.1,29.3,20.1,95.3,18.9,135.1
				C59.3,179.2,21,257.1,0.8,292.8l-0.5,1l0.3,1.1c0.5,1.7,1.1,3.3,1.6,5c9.3,28.3,19.8,60.4,84.8,143.5
				c39.3,50.3,89.2,83.6,133.1,112.9c4.4,2.9,8.7,5.8,13,8.7c0.1,0.2,0.1,0.3,0.2,0.4c0.5,0.7,1.3,1.1,2.1,1.1c0.5,0,1-0.1,1.4-0.4
				c4.6-3.1,9.2-6.2,13.9-9.3c44-29.3,93.8-62.6,133.1-112.9c64.9-83.1,75.5-115.2,84.8-143.5c0.5-1.7,1.1-3.3,1.6-5l0.3-1
				L470.2,293.3z M464,298.7c-9.2,27.9-19.5,59.6-83.9,142c-38.8,49.7-88.3,82.7-132,111.9c-4.1,2.8-8.2,5.4-12.2,8.1
				c-4.2-2.9-8.5-5.7-12.9-8.6c-43.7-29.1-93.2-62.2-132-111.9C26.6,357.8,16.2,326.2,7,298.2c-0.4-1.3-0.9-2.6-1.3-3.9
				C26.2,257.8,64.3,180,65.5,139.8c1.1-36.3-9.5-94-16.8-126.6c-0.1-0.4-0.2-0.8-0.3-1.2c-0.2-1.1-0.5-2.2-0.7-3.2
				c21,10.7,61.1,27.5,90.8,28.3c31.3,0.8,75.9-18.7,96.6-30c20.3,11.1,65.8,31.3,97.5,30.5c29.6-0.7,69.8-17.6,90.8-28.3
				c-5.3,22.9-12.8,61.4-16.2,95.3c-0.1,1.1-0.2,2.2-0.3,3.3c-1.1,11.8-1.6,22.9-1.3,32.5c1.2,40.1,39.3,118,59.8,154.5
				C464.8,296.1,464.4,297.4,464,298.7z"/>
			<path class="st1" d="M405.5,140.3c-0.3-9.6,0.2-20.7,1.3-32.5c0.1-1.1,0.2-2.2,0.3-3.3c3.3-33.9,10.9-72.4,16.2-95.3
				c-21,10.7-61.1,27.5-90.8,28.3c-31.7,0.8-77.2-19.3-97.5-30.5c-20.7,11.2-65.3,30.8-96.6,30c-29.6-0.7-69.8-17.6-90.8-28.3
				c0.2,1,0.5,2.1,0.7,3.2c0.1,0.4,0.2,0.8,0.3,1.2c7.3,32.7,17.9,90.3,16.8,126.6c-1.2,40.1-39.3,118-59.8,154.5
				c0.4,1.3,0.9,2.6,1.3,3.9c9.2,27.9,19.5,59.6,83.9,142c38.8,49.7,88.3,82.7,132,111.9c4.4,2.9,8.7,5.8,12.9,8.6
				c4-2.7,8.1-5.4,12.2-8.1c43.7-29.1,93.2-62.2,132-111.9c64.4-82.4,74.8-114.1,83.9-142c0.4-1.3,0.9-2.6,1.3-3.9
				C444.8,258.3,406.7,180.5,405.5,140.3z M461.4,294.6c-0.5,1.6-1,3.2-1.6,4.8c-8.9,27.2-19,57.9-81.3,137.5
				C340.8,485.1,293,517,250.8,545.1c-4.5,3-9,6-13.4,8.9c-0.4,0.3-0.9,0.4-1.4,0.4c-0.2,0-0.3,0-0.5,0c-0.2,0-0.3,0-0.5,0
				c-0.5,0-1-0.1-1.4-0.4c-4.4-3-8.8-5.9-13.3-8.9c-42-28.1-89.6-60-127.1-108.2c-62-79.6-72.1-110.4-81-137.5
				c-0.5-1.6-1-3.2-1.6-4.8l-0.3-1l0.5-1C30,258.4,66.7,183.8,67.8,146C69,106.2,57,42,51.1,17.1l-1.3-5.5l4.9,2.7
				c18.8,10.2,58.4,27.7,87.8,28.5c29.7,0.8,72.7-18.6,91.3-28.9c0.5-0.3,1.1-0.4,1.7-0.3c0.6-0.1,1.2,0,1.7,0.3
				c18.7,10.3,62,29.7,91.8,29c29.6-0.7,68.8-17.9,87.3-28l4.9-2.7l-1.3,5.5c-4.2,17.6-10.8,53.5-14,86.9c-0.1,1.1-0.2,2.2-0.3,3.2
				c-0.1,0.7-0.1,1.4-0.2,2.1c-1.2,13-1.7,25.5-1.4,36.1c1.1,37.8,37.9,112.5,57.2,146.6l0.5,1L461.4,294.6z"/>
		</g>
		<g>
			<path d="M461.2,292.6C441.9,258.4,405.1,183.8,404,146c-0.3-10.6,0.3-23.1,1.4-36.1c0.1-0.7,0.1-1.4,0.2-2.1
				c0.1-1.1,0.2-2.1,0.3-3.2c3.3-33.4,9.8-69.3,14-86.9l1.3-5.5l-4.9,2.7c-18.5,10-57.8,27.2-87.3,28c-29.8,0.7-73-18.6-91.8-29
				c-0.6-0.3-1.2-0.4-1.7-0.3c-0.6-0.1-1.2,0-1.7,0.3c-18.6,10.3-61.7,29.7-91.3,28.9c-29.3-0.7-69-18.2-87.8-28.5l-4.9-2.7l1.3,5.5
				C57,42,69,106.2,67.8,146c-1.1,37.9-37.8,112.5-57,146.6l-0.5,1l0.3,1c0.5,1.6,1,3.2,1.6,4.8c8.9,27.2,18.9,57.9,81,137.5
				c37.5,48.2,85.2,80.1,127.1,108.2c4.5,3,8.9,6,13.3,8.9c0.4,0.3,0.9,0.4,1.4,0.4c0.2,0,0.3,0,0.5,0c0.2,0,0.3,0,0.5,0
				c0.5,0,1-0.1,1.4-0.4c4.4-3,8.8-5.9,13.4-8.9c42.2-28.1,90-60,127.7-108.2c62.3-79.6,72.4-110.4,81.3-137.5
				c0.5-1.6,1-3.2,1.6-4.8l0.3-1.1L461.2,292.6z M455,297.8c-8.8,26.8-18.8,57.1-80.5,136C337.3,481.4,289.9,513,248,541
				c-4.2,2.8-8.4,5.6-12.5,8.3c-4.1-2.8-8.2-5.5-12.4-8.3c-41.7-27.9-88.9-59.5-126-107.1c-31.6-40.6-49.6-68.3-60.8-89.4h-0.4v-0.7
				c-10.3-19.5-14.8-33.1-19-46c-0.4-1.2-0.8-2.5-1.2-3.7c19.6-35,55.9-109.5,57.1-148c1.1-37.7-9.3-96.8-15.6-124.8
				c20.6,10.6,57.2,25.8,85.2,26.5c30.3,0.8,73.8-18.5,93.2-29.2c19.5,10.7,63.1,29.9,93.6,29.2c28.1-0.7,64.4-15.7,84.7-26
				c-6.3,28.4-16,87.3-14.9,124.4c1.1,38.5,37.7,113,57.3,148C455.9,295.3,455.5,296.6,455,297.8z"/>
			<path class="st1" d="M399,146.1c-1.1-37,8.6-95.9,14.9-124.4c-20.4,10.4-56.7,25.3-84.7,26c-30.5,0.8-74.1-18.5-93.6-29.2
				c-19.4,10.7-62.8,30-93.2,29.2c-27.9-0.7-64.6-15.9-85.2-26.5c6.3,28,16.7,87.1,15.6,124.8c-1.1,38.5-37.5,113-57.1,148
				c0.4,1.2,0.8,2.5,1.2,3.7c4.2,12.8,8.7,26.5,19,46v-49.3h9.4l23.2,16.2h0.3L92,294.4h9.4v50H90.2v-36l-15.9,10.6v25.4H63.1v-25.4
				l-16-10.6v36H36.3c11.2,21,29.2,48.8,60.8,89.4c37.1,47.6,84.3,79.2,126,107.1c4.2,2.8,8.3,5.6,12.4,8.3
				c4.1-2.8,8.3-5.5,12.5-8.3c41.9-27.9,89.3-59.5,126.5-107.1c61.8-78.9,71.7-109.3,80.5-136c0.4-1.2,0.8-2.5,1.2-3.7
				C436.6,259.1,400.1,184.6,399,146.1z M287.9,54h41.9c5.2,0,9.2,1.3,12,3.9c2.9,2.6,4.3,6.6,4.3,11.9c0,4.5-1.1,8.1-3.2,10.6
				c-2.1,2.6-5.1,4.2-9,4.8l11.6,18.8h-12.7l-10.7-18.4h-23.1v18.4h-11.2V54z M138.2,54h17.3l22.5,50h-12.2l-4.8-10.6h-28.5
				l-4.8,10.6h-12.2L138.2,54z M91,251.5l26.4-39l60.2,88.8l34-50.1l-60.2-88.7l0.1-0.2v0l87-128.2l26.4,39l-60.7,89.5l33.8,49.8
				l60.5-89.2l0.4,0.5l0.1-0.2l87,128.2l-26.4,39l-60.9-89.8l-34.2,50.5l34.5,50.8l0.1-0.2l26.4,39l-0.1,0.2l0,0l-26.4,39l0,0
				l-60.4,89l-26.4-39l60.4-89L238,290.2l-60.5,89.2l-26.4-39l0.1-0.2L91,251.5z M128.1,401.6h-11.2v-50.1h11.2V401.6z M196.8,458.2
				c-2.9,2.6-6.9,3.8-12,3.8h-41.4V453l40.2,0.1c2.1,0,3.6-0.5,4.7-1.4c1.1-1,1.7-2.5,1.7-4.7c0-2.1-0.6-3.7-1.7-4.6
				c-1.1-1-2.6-1.5-4.7-1.5h-25.1c-5.2,0-9.2-1.2-12.1-3.7c-2.8-2.5-4.3-6.2-4.3-11.1c0-4.9,1.4-8.5,4.3-11
				c2.9-2.5,6.9-3.8,12.1-3.8h39.3v9.1l-38.2-0.1c-2,0-3.6,0.5-4.7,1.4c-1.1,0.9-1.7,2.3-1.7,4.3c0,2,0.6,3.5,1.7,4.4
				c1.1,0.9,2.7,1.3,4.7,1.3h25.1c5.2,0,9.2,1.3,12,3.8c2.9,2.5,4.3,6.3,4.3,11.3C201.1,451.9,199.7,455.6,196.8,458.2z
				 M266.6,519.8h-11.2v-20.4h-35.3v20.4h-11.2v-50h11.2v20.5h35.3v-20.5h11.2V519.8z M322.9,461.7l-4.8-10.6h-28.5l-4.8,10.6h-12.2
				l22.5-50h17.3l22.5,50H322.9z M376.9,401.6l-4.8-10.6h-28.5l-4.8,10.6h-12.2l22.5-50.1h17.3l22.5,50.1H376.9z M430.8,340.8
				c-2.7,2.4-6.8,3.6-12.3,3.6l-43.5,0.1v-49.9l42.1-0.1c5.6,0,9.7,1.2,12.3,3.5c2.7,2.3,4.1,5.7,4.1,10.4s-1.5,8-4.6,10.2
				c2,1.1,3.6,2.6,4.5,4.5c1,1.8,1.5,4.2,1.5,7.1C434.8,334.7,433.5,338.3,430.8,340.8z"/>
			<path class="st1" d="M334.9,69.8c0,2.4-0.6,4.2-1.7,5.2c-1.1,1-2.6,1.5-4.7,1.5l-29.4-0.1V63.1h29.4c2,0,3.6,0.5,4.7,1.5
				C334.3,65.6,334.9,67.4,334.9,69.8z"/>
			<polygon class="st1" points="157.1,84.4 136.7,84.4 146.4,62.8 147.3,62.8 			"/>
			<polygon class="st1" points="314.1,442 293.7,442 303.4,420.4 304.3,420.4 			"/>
			<polygon class="st1" points="368.1,381.9 347.7,381.9 357.4,360.3 358.3,360.3 			"/>
			<path class="st1" d="M423.5,329.4c0,4-2.1,6-6.4,6h-31v-11.9h31C421.4,323.6,423.5,325.5,423.5,329.4z"/>
			<path class="st1" d="M422.1,308.9c0,3.8-2.1,5.7-6.4,5.7h-29.6v-11.2h29.6C420,303.4,422.1,305.2,422.1,308.9z"/>
			<path d="M36.3,344.5h-0.4v-0.7C36,344,36.2,344.2,36.3,344.5z"/>
		</g>
	</g>
</g>
</svg>
